<svg width="24" height="24" viewBox="0 0 24 24" fill="none" xmlns="http://www.w3.org/2000/svg">
  <path d="M4.5 6.5C4.5 6.22386 4.72386 6 5 6H19C19.2761 6 19.5 6.22386 19.5 6.5C19.5 6.77614 19.2761 7 19 7H5C4.72386 7 4.5 6.77614 4.5 6.5Z" fill="currentColor"/>
  <path d="M6.5 12C6.5 11.7239 6.72386 11.5 7 11.5H17C17.2761 11.5 17.5 11.7239 17.5 12C17.5 12.2761 17.2761 12.5 17 12.5H7C6.72386 12.5 6.5 12.2761 6.5 12Z" fill="currentColor"/>
  <path d="M9 17C8.72386 17 8.5 17.2239 8.5 17.5C8.5 17.7761 8.72386 18 9 18H15C15.2761 18 15.5 17.7761 15.5 17.5C15.5 17.2239 15.2761 17 15 17H9Z" fill="currentColor"/>
</svg> 